<svg xmlns="http://www.w3.org/2000/svg" xmlns:xlink="http://www.w3.org/1999/xlink" width="2048" zoomAndPan="magnify" viewBox="0 0 1536 113.249998" height="151" preserveAspectRatio="xMidYMid meet" version="1.0"><defs><g/><clipPath id="1fd0bc74f2"><path d="M 5.050781 0 L 1530.945312 0 L 1530.945312 112.503906 L 5.050781 112.503906 Z M 5.050781 0 " clip-rule="nonzero"/></clipPath><clipPath id="b114054da7"><path d="M 0.0507812 5 L 103 5 L 103 109 L 0.0507812 109 Z M 0.0507812 5 " clip-rule="nonzero"/></clipPath><clipPath id="24985c22e5"><path d="M 1423 5 L 1525.945312 5 L 1525.945312 109 L 1423 109 Z M 1423 5 " clip-rule="nonzero"/></clipPath><clipPath id="3c691aa9f5"><rect x="0" width="1526" y="0" height="113"/></clipPath></defs><g clip-path="url(#1fd0bc74f2)"><g transform="matrix(1, 0, 0, 1, 5, 0.000000000000002895)"><g clip-path="url(#3c691aa9f5)"><g clip-path="url(#b114054da7)"><g fill="#ffffff" fill-opacity="1"><g transform="translate(-10.466306, 108.27457)"><g><path d="M 30.9375 -82.5 L 30.9375 -61.875 L 10.3125 -61.875 L 10.3125 -82.5 Z M 10.3125 0 L 10.3125 -20.625 L 92.8125 -20.625 L 92.8125 0 Z M 30.9375 -41.25 L 30.9375 -61.875 L 92.8125 -61.875 L 92.8125 -41.25 Z M 30.9375 -82.5 L 30.9375 -103.125 L 113.4375 -103.125 L 113.4375 -82.5 Z M 92.8125 -20.625 L 92.8125 -41.25 L 113.4375 -41.25 L 113.4375 -20.625 Z M 92.8125 -20.625 "/></g></g></g></g><g fill="#ffffff" fill-opacity="1"><g transform="translate(113.288361, 108.27457)"><g><path d="M 51.5625 0 L 51.5625 -82.5 L 10.3125 -82.5 L 10.3125 -103.125 L 113.4375 -103.125 L 113.4375 -82.5 L 72.1875 -82.5 L 72.1875 0 Z M 51.5625 0 "/></g></g></g><g fill="#ffffff" fill-opacity="1"><g transform="translate(237.043029, 108.27457)"><g><path d="M 10.3125 0 L 10.3125 -103.125 L 92.8125 -103.125 L 92.8125 -82.5 L 30.9375 -82.5 L 30.9375 -41.25 L 92.8125 -41.25 L 92.8125 -20.625 L 30.9375 -20.625 L 30.9375 0 Z M 92.8125 0 L 92.8125 -20.625 L 113.4375 -20.625 L 113.4375 0 Z M 92.8125 -41.25 L 92.8125 -82.5 L 113.4375 -82.5 L 113.4375 -41.25 Z M 92.8125 -41.25 "/></g></g></g><g fill="#ffffff" fill-opacity="1"><g transform="translate(360.797696, 108.27457)"><g><path d="M 10.3125 0 L 10.3125 -103.125 L 113.4375 -103.125 L 113.4375 -82.5 L 30.9375 -82.5 L 30.9375 -61.875 L 92.8125 -61.875 L 92.8125 -41.25 L 30.9375 -41.25 L 30.9375 -20.625 L 113.4375 -20.625 L 113.4375 0 Z M 10.3125 0 "/></g></g></g><g fill="#ffffff" fill-opacity="1"><g transform="translate(484.552363, 108.27457)"><g><path d="M 10.3125 0 L 10.3125 -82.5 L 30.9375 -82.5 L 30.9375 -41.25 L 92.8125 -41.25 L 92.8125 -82.5 L 113.4375 -82.5 L 113.4375 0 L 92.8125 0 L 92.8125 -20.625 L 30.9375 -20.625 L 30.9375 0 Z M 30.9375 -82.5 L 30.9375 -103.125 L 92.8125 -103.125 L 92.8125 -82.5 Z M 30.9375 -82.5 "/></g></g></g><g fill="#ffffff" fill-opacity="1"><g transform="translate(608.307031, 108.27457)"><g><path d="M 92.8125 0 L 92.8125 -61.875 L 72.1875 -61.875 L 72.1875 -82.5 L 92.8125 -82.5 L 92.8125 -103.125 L 113.4375 -103.125 L 113.4375 0 Z M 10.3125 0 L 10.3125 -103.125 L 30.9375 -103.125 L 30.9375 -82.5 L 51.5625 -82.5 L 51.5625 -61.875 L 30.9375 -61.875 L 30.9375 0 Z M 51.5625 -41.25 L 51.5625 -61.875 L 72.1875 -61.875 L 72.1875 -41.25 Z M 51.5625 -41.25 "/></g></g></g><g fill="#ffffff" fill-opacity="1"><g transform="translate(732.061698, 108.27457)"><g/></g></g><g fill="#ffffff" fill-opacity="1"><g transform="translate(793.939055, 108.27457)"><g><path d="M 51.5625 0 L 51.5625 -82.5 L 10.3125 -82.5 L 10.3125 -103.125 L 113.4375 -103.125 L 113.4375 -82.5 L 72.1875 -82.5 L 72.1875 0 Z M 51.5625 0 "/></g></g></g><g fill="#ffffff" fill-opacity="1"><g transform="translate(917.693676, 108.27457)"><g><path d="M 10.3125 0 L 10.3125 -103.125 L 113.4375 -103.125 L 113.4375 -82.5 L 30.9375 -82.5 L 30.9375 -61.875 L 92.8125 -61.875 L 92.8125 -41.25 L 30.9375 -41.25 L 30.9375 -20.625 L 113.4375 -20.625 L 113.4375 0 Z M 10.3125 0 "/></g></g></g><g fill="#ffffff" fill-opacity="1"><g transform="translate(1041.44839, 108.27457)"><g><path d="M 30.9375 -82.5 L 30.9375 -61.875 L 10.3125 -61.875 L 10.3125 -82.5 Z M 10.3125 0 L 10.3125 -20.625 L 92.8125 -20.625 L 92.8125 0 Z M 30.9375 -41.25 L 30.9375 -61.875 L 92.8125 -61.875 L 92.8125 -41.25 Z M 30.9375 -82.5 L 30.9375 -103.125 L 113.4375 -103.125 L 113.4375 -82.5 Z M 92.8125 -20.625 L 92.8125 -41.25 L 113.4375 -41.25 L 113.4375 -20.625 Z M 92.8125 -20.625 "/></g></g></g><g fill="#ffffff" fill-opacity="1"><g transform="translate(1165.203011, 108.27457)"><g><path d="M 51.5625 0 L 51.5625 -82.5 L 10.3125 -82.5 L 10.3125 -103.125 L 113.4375 -103.125 L 113.4375 -82.5 L 72.1875 -82.5 L 72.1875 0 Z M 51.5625 0 "/></g></g></g><g fill="#ffffff" fill-opacity="1"><g transform="translate(1288.957725, 108.27457)"><g><path d="M 10.3125 0 L 10.3125 -103.125 L 113.4375 -103.125 L 113.4375 -82.5 L 30.9375 -82.5 L 30.9375 -61.875 L 92.8125 -61.875 L 92.8125 -41.25 L 30.9375 -41.25 L 30.9375 -20.625 L 113.4375 -20.625 L 113.4375 0 Z M 10.3125 0 "/></g></g></g><g clip-path="url(#24985c22e5)"><g fill="#ffffff" fill-opacity="1"><g transform="translate(1412.712346, 108.27457)"><g><path d="M 10.3125 0 L 10.3125 -103.125 L 92.8125 -103.125 L 92.8125 -82.5 L 30.9375 -82.5 L 30.9375 -41.25 L 92.8125 -41.25 L 92.8125 -20.625 L 30.9375 -20.625 L 30.9375 0 Z M 92.8125 0 L 92.8125 -20.625 L 113.4375 -20.625 L 113.4375 0 Z M 92.8125 -41.25 L 92.8125 -82.5 L 113.4375 -82.5 L 113.4375 -41.25 Z M 92.8125 -41.25 "/></g></g></g></g></g></g></g></svg>
