<svg xmlns="http://www.w3.org/2000/svg" xmlns:xlink="http://www.w3.org/1999/xlink" width="5000" zoomAndPan="magnify" viewBox="0 0 3750 254" height="1000" preserveAspectRatio="xMidYMid meet" version="1.0">
<defs>
    <g/>
    <clipPath id="7e7bc95a56">
        <path d="M 0 50 L 250 50 L 250 305 L 0 305 Z M 0 50 " clip-rule="nonzero"/>
    </clipPath>
    <clipPath id="9f99dc4fe0">
        <path d="M 3500 50 L 3750 50 L 3750 305 L 3500 305 Z M 3500 50 " clip-rule="nonzero"/>
    </clipPath>
    <clipPath id="6a527cc679">
        <rect x="0" width="3750" y="0" height="378"/>
    </clipPath>
</defs>
<g transform="matrix(1, 0, 0, 1, 0, 253.90625)">
    <g clip-path="url(#6a527cc679)">
        <g clip-path="url(#7e7bc95a56)">
            <g fill="#ffffff" fill-opacity="1">
                <g transform="translate(-29.319749, 304.240723)">
                    <g>
                        <path d="M 76.171875 -203.125 L 76.171875 -152.34375 L 25.390625 -152.34375 L 25.390625 -203.125 Z M 25.390625 0 L 25.390625 -50.78125 L 228.515625 -50.78125 L 228.515625 0 Z M 76.171875 -101.5625 L 76.171875 -152.34375 L 228.515625 -152.34375 L 228.515625 -101.5625 Z M 76.171875 -203.125 L 76.171875 -253.90625 L 279.3125 -253.90625 L 279.3125 -203.125 Z M 228.515625 -50.78125 L 228.515625 -101.5625 L 279.3125 -101.5625 L 279.3125 -50.78125 Z M 228.515625 -50.78125 "/>
                    </g>
                </g>
            </g>
        </g>
        <g fill="#ffffff" fill-opacity="1">
            <g transform="translate(275.371546, 304.240723)">
                <g>
                    <path d="M 126.953125 0 L 126.953125 -203.125 L 25.390625 -203.125 L 25.390625 -253.90625 L 279.3125 -253.90625 L 279.3125 -203.125 L 177.734375 -203.125 L 177.734375 0 Z M 126.953125 0 "/>
                </g>
            </g>
        </g>
        <g fill="#ffffff" fill-opacity="1">
            <g transform="translate(580.062841, 304.240723)">
                <g>
                    <path d="M 25.390625 0 L 25.390625 -253.90625 L 228.515625 -253.90625 L 228.515625 -203.125 L 76.171875 -203.125 L 76.171875 -101.5625 L 228.515625 -101.5625 L 228.515625 -50.78125 L 76.171875 -50.78125 L 76.171875 0 Z M 228.515625 0 L 228.515625 -50.78125 L 279.3125 -50.78125 L 279.3125 0 Z M 228.515625 -101.5625 L 228.515625 -203.125 L 279.3125 -203.125 L 279.3125 -101.5625 Z M 228.515625 -101.5625 "/>
                </g>
            </g>
        </g>
        <g fill="#ffffff" fill-opacity="1">
            <g transform="translate(884.754136, 304.240723)">
                <g>
                    <path d="M 25.390625 0 L 25.390625 -253.90625 L 279.3125 -253.90625 L 279.3125 -203.125 L 76.171875 -203.125 L 76.171875 -152.34375 L 228.515625 -152.34375 L 228.515625 -101.5625 L 76.171875 -101.5625 L 76.171875 -50.78125 L 279.3125 -50.78125 L 279.3125 0 Z M 25.390625 0 "/>
                </g>
            </g>
        </g>
        <g fill="#ffffff" fill-opacity="1">
            <g transform="translate(1189.445431, 304.240723)">
                <g>
                    <path d="M 25.390625 0 L 25.390625 -203.125 L 76.171875 -203.125 L 76.171875 -101.5625 L 228.515625 -101.5625 L 228.515625 -203.125 L 279.3125 -203.125 L 279.3125 0 L 228.515625 0 L 228.515625 -50.78125 L 76.171875 -50.78125 L 76.171875 0 Z M 76.171875 -203.125 L 76.171875 -253.90625 L 228.515625 -253.90625 L 228.515625 -203.125 Z M 76.171875 -203.125 "/>
                </g>
            </g>
        </g>
        <g fill="#ffffff" fill-opacity="1">
            <g transform="translate(1494.136726, 304.240723)">
                <g>
                    <path d="M 228.515625 0 L 228.515625 -152.34375 L 177.734375 -152.34375 L 177.734375 -203.125 L 228.515625 -203.125 L 228.515625 -253.90625 L 279.3125 -253.90625 L 279.3125 0 Z M 25.390625 0 L 25.390625 -253.90625 L 76.171875 -253.90625 L 76.171875 -203.125 L 126.953125 -203.125 L 126.953125 -152.34375 L 76.171875 -152.34375 L 76.171875 0 Z M 126.953125 -101.5625 L 126.953125 -152.34375 L 177.734375 -152.34375 L 177.734375 -101.5625 Z M 126.953125 -101.5625 "/>
                </g>
            </g>
        </g>
        <g fill="#ffffff" fill-opacity="1">
            <g transform="translate(1798.828021, 304.240723)">
                <g/>
            </g>
        </g>
        <g fill="#ffffff" fill-opacity="1">
            <g transform="translate(1951.173726, 304.240723)">
                <g>
                    <path d="M 126.953125 0 L 126.953125 -203.125 L 25.390625 -203.125 L 25.390625 -253.90625 L 279.3125 -253.90625 L 279.3125 -203.125 L 177.734375 -203.125 L 177.734375 0 Z M 126.953125 0 "/>
                </g>
            </g>
        </g>
        <g fill="#ffffff" fill-opacity="1">
            <g transform="translate(2255.864907, 304.240723)">
                <g>
                    <path d="M 25.390625 0 L 25.390625 -253.90625 L 279.3125 -253.90625 L 279.3125 -203.125 L 76.171875 -203.125 L 76.171875 -152.34375 L 228.515625 -152.34375 L 228.515625 -101.5625 L 76.171875 -101.5625 L 76.171875 -50.78125 L 279.3125 -50.78125 L 279.3125 0 Z M 25.390625 0 "/>
                </g>
            </g>
        </g>
        <g fill="#ffffff" fill-opacity="1">
            <g transform="translate(2560.556315, 304.240723)">
                <g>
                    <path d="M 76.171875 -203.125 L 76.171875 -152.34375 L 25.390625 -152.34375 L 25.390625 -203.125 Z M 25.390625 0 L 25.390625 -50.78125 L 228.515625 -50.78125 L 228.515625 0 Z M 76.171875 -101.5625 L 76.171875 -152.34375 L 228.515625 -152.34375 L 228.515625 -101.5625 Z M 76.171875 -203.125 L 76.171875 -253.90625 L 279.3125 -253.90625 L 279.3125 -203.125 Z M 228.515625 -50.78125 L 228.515625 -101.5625 L 279.3125 -101.5625 L 279.3125 -50.78125 Z M 228.515625 -50.78125 "/>
                </g>
            </g>
        </g>
        <g fill="#ffffff" fill-opacity="1">
            <g transform="translate(2865.247496, 304.240723)">
                <g>
                    <path d="M 126.953125 0 L 126.953125 -203.125 L 25.390625 -203.125 L 25.390625 -253.90625 L 279.3125 -253.90625 L 279.3125 -203.125 L 177.734375 -203.125 L 177.734375 0 Z M 126.953125 0 "/>
                </g>
            </g>
        </g>
        <g fill="#ffffff" fill-opacity="1">
            <g transform="translate(3169.938905, 304.240723)">
                <g>
                    <path d="M 25.390625 0 L 25.390625 -253.90625 L 279.3125 -253.90625 L 279.3125 -203.125 L 76.171875 -203.125 L 76.171875 -152.34375 L 228.515625 -152.34375 L 228.515625 -101.5625 L 76.171875 -101.5625 L 76.171875 -50.78125 L 279.3125 -50.78125 L 279.3125 0 Z M 25.390625 0 "/>
                </g>
            </g>
        </g>
        <g clip-path="url(#9f99dc4fe0)">
            <g fill="#ffffff" fill-opacity="1">
                <g transform="translate(3474.630086, 304.240723)">
                    <g>
                        <path d="M 25.390625 0 L 25.390625 -253.90625 L 228.515625 -253.90625 L 228.515625 -203.125 L 76.171875 -203.125 L 76.171875 -101.5625 L 228.515625 -101.5625 L 228.515625 -50.78125 L 76.171875 -50.78125 L 76.171875 0 Z M 228.515625 0 L 228.515625 -50.78125 L 279.3125 -50.78125 L 279.3125 0 Z M 228.515625 -101.5625 L 228.515625 -203.125 L 279.3125 -203.125 L 279.3125 -101.5625 Z M 228.515625 -101.5625 "/>
                    </g>
                </g>
            </g>
        </g>
    </g>
</g>
</svg>
